<svg xmlns="http://www.w3.org/2000/svg" xmlns:xlink="http://www.w3.org/1999/xlink" viewBox="0 0 243.8 221.1">
<g>
	<defs>
		<rect id="SVGID_1_" x="0" width="243.8" height="221.1"/>
	</defs>
	<clipPath id="SVGID_2_">
		<use xlink:href="#SVGID_1_"  overflow="visible"/>
	</clipPath>
	<g clip-path="url(#SVGID_2_)">
		<path fill="#DE7330" d="M214.7,46.1c-1.4,0.7-3.1,0.2-3.8-1.1c-0.7-1.4-0.2-3.1,1.1-3.8c1.4-0.7,3.1-0.2,3.8,1.1
			C216.5,43.6,216,45.3,214.7,46.1z"/>
		<g>
			<g>
				<path fill="#DB9500" d="M49,75.9c2.4,0,4.3,1.9,4.3,4.2c0,1.2-0.5,2.3-1.3,3.1c9,13.1,24.1,21.8,41.2,21.8c27.6,0,50-22.4,50-50
					c0-27.6-22.4-50-50-50s-50,22.4-50,50c0,7.5,1.7,14.6,4.6,21C48.3,76,48.7,75.9,49,75.9z"/>
				<circle fill="#D28100" cx="107.5" cy="57.4" r="35.4"/>

					<ellipse transform="matrix(0.9259 -0.3778 0.3778 0.9259 -14.7759 39.5155)" fill="#C66E00" cx="93.3" cy="57.4" rx="21.3" ry="21.3"/>
				<circle fill="#BD5E00" cx="100.4" cy="59" r="14.2"/>
				<g>
					<path fill="#F5D073" d="M114.6,125.9c-28.7,0-53.5-17.1-64.6-41.7c-0.2,0-0.4,0.1-0.6,0.1c-2.3,0-4.3-1.9-4.3-4.2
						c0-1.5,0.7-2.8,1.9-3.6c-2.1-6.8-3.3-14-3.3-21.4c0-39.1,31.7-70.9,70.9-70.9c38.2,0,69.2,30.2,70.8,67.9
						c0-1.2,0.1-2.4,0.1-3.7c0-54.8-44.4-99.2-99.2-99.2S-13-6.4-13,48.4c0,15.1,3.4,29.4,9.4,42.2c2.8-2.3,6.6-3.2,10.4-2.1
						c6,1.8,9.4,8.1,7.7,14.1c-0.3,1-0.7,1.9-1.3,2.8c2.1,1.3,3.1,3.9,2.4,6.4c-0.4,1.5-1.5,2.7-2.8,3.4
						c18.1,19.9,44.3,32.5,73.4,32.5c40.4,0,75.1-24.1,90.6-58.7C164.8,111,141.5,125.9,114.6,125.9z"/>
					<path fill="#DE7330" d="M4.7,108.6c0.2-0.8,0.6-1.5,1.1-2c-3.6-5-6.8-10.3-9.4-15.9c-1.7,1.4-3.1,3.3-3.7,5.6
						c-1.8,6,1.7,12.3,7.7,14.1c1.4,0.4,2.8,0.5,4.1,0.4C4.5,110,4.5,109.3,4.7,108.6z"/>
					<path fill="#D3610F" d="M11.8,104.8c0.5,0.2,1,0.4,1.4,0.7c0.5-0.8,1-1.8,1.3-2.8c1.8-6-1.7-12.3-7.7-14.1
						c-3.7-1.1-7.6-0.2-10.4,2.1c2.6,5.6,5.8,10.9,9.4,15.9C7.3,104.9,9.6,104.1,11.8,104.8z"/>
					<path fill="#F5D073" d="M4.5,110.7c0.2,2.2,1.8,4.2,4,4.9c1.5,0.4,3,0.2,4.3-0.4c-1.6-1.8-3.1-3.6-4.6-5.4
						C7.1,110.3,5.8,110.6,4.5,110.7z"/>
					<path fill="#F5D073" d="M15.6,111.8c0.7-2.5-0.3-5.1-2.4-6.4c-1.2,1.9-2.9,3.4-5,4.4c1.5,1.9,3,3.7,4.6,5.4
						C14.2,114.5,15.2,113.3,15.6,111.8z"/>
					<path fill="#E8AF29" d="M15.6,111.8c0.7-2.5-0.3-5.1-2.4-6.4c-1.2,1.9-2.9,3.4-5,4.4c1.5,1.9,3,3.7,4.6,5.4
						C14.2,114.5,15.2,113.3,15.6,111.8z"/>
					<path fill="#D3610F" d="M5.8,106.6c-0.5,0.6-0.9,1.3-1.1,2c-0.2,0.7-0.3,1.4-0.2,2.1c1.3-0.1,2.6-0.4,3.7-1
						C7.4,108.7,6.6,107.6,5.8,106.6z"/>
					<path fill="#C74B06" d="M5.8,106.6c0.8,1.1,1.6,2.2,2.4,3.2c2-0.9,3.8-2.4,5-4.4c-0.4-0.3-0.9-0.5-1.4-0.7
						C9.6,104.1,7.3,104.9,5.8,106.6z"/>
					<path fill="#E8AF29" d="M176.9,88.9c5.5-10.1,8.6-21.6,8.6-33.9c0-1,0-2-0.1-2.9C184.9,65.2,181.9,77.6,176.9,88.9z"/>
					<path fill="#E8AF29" d="M114.6-15.8c-39.1,0-70.9,31.7-70.9,70.9c0-27.4,22.2-49.6,49.6-49.6s49.6,22.2,49.6,49.6
						c0,27.4-22.2,49.6-49.6,49.6c-17,0-32-8.6-40.9-21.6c-0.6,0.6-1.5,1-2.4,1.2c11.1,24.6,35.8,41.7,64.6,41.7
						c26.9,0,50.2-15,62.3-37c5.1-11.3,8.1-23.7,8.5-36.8C183.8,14.3,152.8-15.8,114.6-15.8z"/>
					<path fill="#E8AF29" d="M48.3,75.9c-2.9-6.3-4.6-13.4-4.6-20.9c0,7.5,1.2,14.7,3.3,21.4C47.4,76.2,47.9,76,48.3,75.9z"/>
					<path fill="#F5D073" d="M45.1,80.1c0,2.3,2,4.2,4.3,4.2c0.2,0,0.4,0,0.6-0.1c-1.1-2.5-2.1-5.1-3-7.7
						C45.9,77.3,45.1,78.6,45.1,80.1z"/>
					<path fill="#D3610F" d="M45.1,80.1c0,2.3,2,4.2,4.3,4.2c0.2,0,0.4,0,0.6-0.1c-1.1-2.5-2.1-5.1-3-7.7
						C45.9,77.3,45.1,78.6,45.1,80.1z"/>
					<path fill="#E8AF29" d="M47,76.5c0.8,2.6,1.8,5.2,3,7.7c0.9-0.1,1.7-0.5,2.4-1.2c-1.5-2.2-2.9-4.6-4.1-7.1
						C47.9,76,47.4,76.2,47,76.5z"/>
					<path fill="#D25916" d="M47,76.5c0.8,2.6,1.8,5.2,3,7.7c0.9-0.1,1.7-0.5,2.4-1.2c-1.5-2.2-2.9-4.6-4.1-7.1
						C47.9,76,47.4,76.2,47,76.5z"/>
					<path fill="#DB9500" d="M49.4,75.8c-0.4,0-0.7,0.1-1,0.1c1.2,2.5,2.5,4.9,4.1,7.1c0.8-0.8,1.3-1.9,1.3-3.1
						C53.6,77.6,51.7,75.7,49.4,75.8z"/>
					<path fill="#C74B06" d="M49.4,75.8c-0.4,0-0.7,0.1-1,0.1c1.2,2.5,2.5,4.9,4.1,7.1c0.8-0.8,1.3-1.9,1.3-3.1
						C53.6,77.6,51.7,75.7,49.4,75.8z"/>
				</g>
				<path fill="#F5D073" d="M26.6,82.2c-0.4,1.5-2,2.4-3.5,1.9c-1.5-0.4-2.4-2-1.9-3.5c0.4-1.5,2-2.4,3.5-1.9
					C26.2,79.2,27.1,80.7,26.6,82.2z"/>
				<path fill="#DE7330" d="M193.7,56.4c-1.3,4.5-6,7.1-10.6,5.8c-4.5-1.3-7.1-6-5.8-10.6c1.3-4.5,6-7.1,10.6-5.8
					C192.5,47.1,195,51.9,193.7,56.4z"/>
				<path fill="#F5D073" d="M-54.9,82.2c-0.4,1.5-2,2.4-3.5,1.9c-1.5-0.4-2.4-2-1.9-3.5c0.4-1.5,2-2.4,3.5-1.9
					C-55.3,79.2-54.4,80.7-54.9,82.2z"/>

					<ellipse transform="matrix(0.3537 -0.9354 0.9354 0.3537 -145.9402 63.0681)" fill="#F5D073" cx="-27.3" cy="137.1" rx="8.5" ry="8.5"/>
				<g>
					<path fill="#F5D073" d="M-101.2,155.9c-0.2,0.7-0.7,1.3-1.4,1.7c-1.3,0.7-2.8,0.3-3.6-0.8c-1,0.7-1.7,1.7-2.1,2.9
						c-0.9,3,0.8,6.2,3.8,7c3,0.9,6.2-0.8,7-3.8C-96.5,159.9-98.2,156.7-101.2,155.9z"/>
					<path fill="#DE7330" d="M-101.2,155.9C-101.2,155.9-101.2,155.9-101.2,155.9c0.2-0.7,0.1-1.5-0.2-2.2c-0.8-1.4-2.5-1.9-3.8-1.1
						s-1.9,2.5-1.1,3.8c0.1,0.1,0.1,0.2,0.2,0.3C-104.8,155.7-103,155.3-101.2,155.9z"/>
					<path fill="#F5D073" d="M-102.6,157.5c0.7-0.4,1.2-1,1.4-1.7c0,0,0,0,0,0c-1.8-0.5-3.6-0.1-5,0.9
						C-105.4,157.9-103.9,158.2-102.6,157.5z"/>
					<path fill="#D3610F" d="M-102.6,157.5c0.7-0.4,1.2-1,1.4-1.7c0,0,0,0,0,0c-1.8-0.5-3.6-0.1-5,0.9
						C-105.4,157.9-103.9,158.2-102.6,157.5z"/>
				</g>
				<path fill="#F5D073" d="M26.5,164.5c-0.9,3-4,4.7-7,3.8c-3-0.9-4.7-4-3.8-7c0.9-3,4-4.7,7-3.8C25.7,158.4,27.4,161.5,26.5,164.5
					z"/>
				<path fill="#F5D073" d="M-32.1,109.9c0,3.1-2.5,5.7-5.6,5.7c-3.1,0-5.7-2.5-5.7-5.6c0-3.1,2.5-5.7,5.6-5.7
					C-34.7,104.2-32.1,106.7-32.1,109.9z"/>
				<path fill="#DE7330" d="M-70.3,167.9c-0.4,1.5-2,2.4-3.5,1.9c-1.5-0.4-2.4-2-1.9-3.5c0.4-1.5,2-2.4,3.5-1.9
					S-69.8,166.4-70.3,167.9z"/>
				<path fill="#F5D073" d="M-100.1,122.3c-0.4,1.5-2,2.4-3.5,1.9c-1.5-0.4-2.4-2-1.9-3.5c0.4-1.5,2-2.4,3.5-1.9
					C-100.5,119.2-99.7,120.7-100.1,122.3z"/>
				<path fill="#F5D073" d="M-116.4,176c-1.3,4.5-6,7.1-10.6,5.8c-4.5-1.3-7.1-6-5.8-10.6c1.3-4.5,6-7.1,10.6-5.8
					C-117.6,166.8-115.1,171.5-116.4,176z"/>
				<g>
					<path fill="#F5D073" d="M-69.8,121.1c0.2-0.5,0.5-1,0.8-1.4c-0.8-0.6-1.7-1.1-2.7-1.5c-5.9-2.2-12.4,0.7-14.6,6.6
						c-2.2,5.9,0.7,12.4,6.6,14.6c5.9,2.2,12.4-0.7,14.6-6.6c0.5-1.3,0.7-2.7,0.7-4.1c-0.7,0-1.4-0.1-2.1-0.4
						C-69.5,127.3-70.9,124.1-69.8,121.1z"/>
					<path fill="#F5D073" d="M-62.5,117.8c-2.4-0.9-5.1-0.1-6.5,1.9c2.9,2.1,4.6,5.5,4.6,9.1c2.2,0,4.3-1.4,5.2-3.7
						C-58.1,122.2-59.6,119-62.5,117.8z"/>
					<path fill="#F5D073" d="M-69,119.7c-0.3,0.4-0.6,0.9-0.8,1.4c-1.1,2.9,0.4,6.2,3.3,7.3c0.7,0.3,1.4,0.4,2.1,0.4
						C-64.4,125.2-66.1,121.9-69,119.7z"/>
					<path fill="#E9B129" d="M-69,119.7c-0.3,0.4-0.6,0.9-0.8,1.4c-1.1,2.9,0.4,6.2,3.3,7.3c0.7,0.3,1.4,0.4,2.1,0.4
						C-64.4,125.2-66.1,121.9-69,119.7z"/>
				</g>
				<g>
					<path fill="#DE7330" d="M-175.8,183.2c-2-2.4-5.6-2.7-8-0.7c0.5,0.6,0.7,1.3,0.6,2.1c-0.1,1.4-1.3,2.5-2.7,2.6
						c0.1,1.2,0.5,2.4,1.3,3.3c2,2.4,5.6,2.7,8,0.7C-174.2,189.2-173.8,185.6-175.8,183.2z"/>
					<path fill="#DE7330" d="M-183.8,182.5L-183.8,182.5c-0.5-0.6-1.1-0.9-1.9-1c-1.6-0.1-2.9,1-3.1,2.6c-0.1,1.6,1,2.9,2.6,3.1
						c0.1,0,0.3,0,0.4,0C-185.9,185.5-185.3,183.7-183.8,182.5z"/>
					<path fill="#DE7330" d="M-183.2,184.6c0.1-0.8-0.2-1.5-0.6-2.1l0,0c-1.4,1.2-2.1,2.9-2,4.6C-184.5,187.1-183.3,186-183.2,184.6
						z"/>
					<path fill="#C73709" d="M-183.2,184.6c0.1-0.8-0.2-1.5-0.6-2.1l0,0c-1.4,1.2-2.1,2.9-2,4.6C-184.5,187.1-183.3,186-183.2,184.6
						z"/>
				</g>
				<path fill="#DE7330" d="M-32.3,177.2c-0.9,3-4,4.7-7,3.8c-3-0.9-4.7-4-3.8-7c0.9-3,4-4.7,7-3.8C-33.2,171-31.4,174.2-32.3,177.2
					z"/>
				<path fill="#DE7330" d="M-111.1,137.9c-0.9,3-4,4.7-7,3.8c-3-0.9-4.7-4-3.8-7c0.9-3,4-4.7,7-3.8
					C-111.9,131.7-110.2,134.9-111.1,137.9z"/>
				<path fill="#DE7330" d="M-149.1,194.2c-0.4,1.5-2,2.4-3.5,1.9c-1.5-0.4-2.4-2-1.9-3.5c0.4-1.5,2-2.4,3.5-1.9
					C-149.5,191.1-148.6,192.7-149.1,194.2z"/>
				<g>
					<path fill="#F5D073" d="M216,44.4c-0.2,0.7-0.7,1.3-1.4,1.7c-1.3,0.7-2.8,0.3-3.6-0.8c-1,0.7-1.7,1.7-2.1,2.9
						c-0.9,3,0.8,6.2,3.8,7c3,0.9,6.2-0.8,7-3.8C220.8,48.4,219,45.3,216,44.4z"/>
					<path fill="#F5D073" d="M214.7,46.1c0.7-0.4,1.2-1,1.4-1.7h0c-1.8-0.5-3.6-0.1-5,0.9C211.9,46.4,213.4,46.7,214.7,46.1z"/>
					<path fill="#D3610F" d="M214.7,46.1c0.7-0.4,1.2-1,1.4-1.7h0c-1.8-0.5-3.6-0.1-5,0.9C211.9,46.4,213.4,46.7,214.7,46.1z"/>
				</g>
				<path fill="#F5D073" d="M230.8,9.1c-0.4,1.5-2,2.4-3.5,1.9c-1.5-0.4-2.4-2-1.9-3.5c0.4-1.5,2-2.4,3.5-1.9
					C230.4,6,231.3,7.6,230.8,9.1z"/>
				<path fill="#DE7330" d="M219.9,24.7c-0.9,3-4,4.7-7,3.8c-3-0.9-4.7-4-3.8-7c0.9-3,4-4.7,7-3.8C219,18.5,220.8,21.7,219.9,24.7z"
					/>
				<path fill="#DE7330" d="M202.4,68.9c-0.4,1.5-2,2.4-3.5,1.9c-1.5-0.4-2.4-2-1.9-3.5s2-2.4,3.5-1.9
					C202,65.8,202.9,67.4,202.4,68.9z"/>
			</g>
		</g>
	</g>
</g>
</svg>
