<svg xmlns="http://www.w3.org/2000/svg" xmlns:xlink="http://www.w3.org/1999/xlink" viewBox="0 0 538.6 155.9">
  <path fill="#DE7330" d="M352.9,51c-1.4,0.7-3.1,0.2-3.8-1.1c-0.7-1.4-0.2-3.1,1.1-3.8c1.4-0.7,3.1-0.2,3.8,1.1
	C354.7,48.6,354.2,50.3,352.9,51z"/>
  <g>
    <defs>
      <rect id="SVGID_1_" width="538.6" height="155.9"/>
    </defs>
    <clipPath id="SVGID_2_">
      <use xlink:href="#SVGID_1_" overflow="visible"/>
    </clipPath>
    <g clip-path="url(#SVGID_2_)">
      <path fill="#DB9500" d="M187.2,80.9c2.4,0,4.3,1.9,4.3,4.2c0,1.2-0.5,2.3-1.3,3.1c9,13.1,24.1,21.8,41.2,21.8
			c27.6,0,50-22.4,50-50c0-27.6-22.4-50-50-50s-50,22.4-50,50c0,7.5,1.7,14.6,4.6,21C186.5,80.9,186.9,80.9,187.2,80.9z"/>
      <circle fill="#D28100" cx="245.7" cy="62.4" r="35.4"/>

      <ellipse transform="matrix(0.9259 -0.3778 0.3778 0.9259 -6.41 92.0875)" fill="#C66E00" cx="231.5" cy="62.4" rx="21.3" ry="21.3"/>
      <circle fill="#BD5E00" cx="238.6" cy="64" r="14.2"/>
      <g>
        <path
          fill="#F5D073"
          d="M252.8,130.9c-28.7,0-53.5-17.1-64.6-41.7c-0.2,0-0.4,0.1-0.6,0.1c-2.3,0-4.3-1.9-4.3-4.2
				c0-1.5,0.7-2.8,1.9-3.6c-2.1-6.8-3.3-14-3.3-21.4c0-39.1,31.7-70.9,70.9-70.9c38.2,0,69.2,30.2,70.8,67.9c0-1.2,0.1-2.4,0.1-3.7
				c0-54.8-44.4-99.2-99.2-99.2s-99.2,44.4-99.2,99.2c0,15.1,3.4,29.4,9.4,42.2c2.8-2.3,6.6-3.2,10.4-2.1c6,1.8,9.4,8.1,7.7,14.1
				c-0.3,1-0.7,1.9-1.3,2.8c2.1,1.3,3.1,3.9,2.4,6.4c-0.4,1.5-1.5,2.7-2.8,3.4c18.1,19.9,44.3,32.5,73.4,32.5
				c40.4,0,75.1-24.1,90.6-58.7C303,115.9,279.7,130.9,252.8,130.9z"/>
        <path fill="#DE7330" d="M142.9,113.6c0.2-0.8,0.6-1.5,1.1-2c-3.6-5-6.8-10.3-9.4-15.9c-1.7,1.4-3.1,3.3-3.7,5.6
				c-1.8,6,1.7,12.3,7.7,14.1c1.4,0.4,2.8,0.5,4.1,0.4C142.7,115,142.7,114.3,142.9,113.6z"/>
        <path fill="#D3610F" d="M150,109.7c0.5,0.2,1,0.4,1.4,0.7c0.5-0.8,1-1.8,1.3-2.8c1.8-6-1.7-12.3-7.7-14.1
				c-3.7-1.1-7.6-0.2-10.4,2.1c2.6,5.6,5.8,10.9,9.4,15.9C145.4,109.8,147.7,109.1,150,109.7z"/>
        <path fill="#F5D073" d="M142.7,115.7c0.2,2.2,1.8,4.2,4,4.9c1.5,0.4,3,0.2,4.3-0.4c-1.6-1.8-3.1-3.6-4.6-5.4
				C145.3,115.3,144,115.6,142.7,115.7z"/>
        <path fill="#F5D073" d="M153.8,116.8c0.7-2.5-0.3-5.1-2.4-6.4c-1.2,1.9-2.9,3.4-5,4.4c1.5,1.9,3,3.7,4.6,5.4
				C152.4,119.5,153.4,118.3,153.8,116.8z"/>
        <path fill="#E8AF29" d="M153.8,116.8c0.7-2.5-0.3-5.1-2.4-6.4c-1.2,1.9-2.9,3.4-5,4.4c1.5,1.9,3,3.7,4.6,5.4
				C152.4,119.5,153.4,118.3,153.8,116.8z"/>
        <path fill="#D3610F" d="M144,111.5c-0.5,0.6-0.9,1.3-1.1,2c-0.2,0.7-0.3,1.4-0.2,2.1c1.3-0.1,2.6-0.4,3.7-1
				C145.6,113.7,144.8,112.6,144,111.5z"/>
        <path fill="#C74B06" d="M144,111.5c0.8,1.1,1.6,2.2,2.4,3.2c2-0.9,3.8-2.4,5-4.4c-0.4-0.3-0.9-0.5-1.4-0.7
				C147.7,109.1,145.4,109.8,144,111.5z"/>
        <path fill="#E8AF29" d="M315,93.9c5.5-10.1,8.6-21.6,8.6-33.9c0-1,0-2-0.1-2.9C323.1,70.1,320.1,82.6,315,93.9z"/>
        <path
          fill="#E8AF29"
          d="M252.8-10.9c-39.1,0-70.9,31.7-70.9,70.9c0-27.4,22.2-49.6,49.6-49.6s49.6,22.2,49.6,49.6
				c0,27.4-22.2,49.6-49.6,49.6c-17,0-32-8.6-40.9-21.6c-0.6,0.6-1.5,1-2.4,1.2c11.1,24.6,35.8,41.7,64.6,41.7
				c26.9,0,50.2-15,62.3-37c5.1-11.3,8.1-23.7,8.5-36.8C322,19.3,290.9-10.9,252.8-10.9z"/>
        <path fill="#E8AF29" d="M186.5,80.9c-2.9-6.3-4.6-13.4-4.6-20.9c0,7.5,1.2,14.7,3.3,21.4C185.6,81.2,186.1,81,186.5,80.9z"/>
        <path fill="#F5D073" d="M183.3,85c0,2.3,2,4.2,4.3,4.2c0.2,0,0.4,0,0.6-0.1c-1.1-2.5-2.1-5.1-3-7.7
				C184.1,82.2,183.3,83.5,183.3,85z"/>
        <path fill="#D3610F" d="M183.3,85c0,2.3,2,4.2,4.3,4.2c0.2,0,0.4,0,0.6-0.1c-1.1-2.5-2.1-5.1-3-7.7
				C184.1,82.2,183.3,83.5,183.3,85z"/>
        <path fill="#E8AF29" d="M185.2,81.4c0.8,2.6,1.8,5.2,3,7.7c0.9-0.1,1.7-0.5,2.4-1.2c-1.5-2.2-2.9-4.6-4.1-7.1
				C186.1,81,185.6,81.2,185.2,81.4z"/>
        <path fill="#D25916" d="M185.2,81.4c0.8,2.6,1.8,5.2,3,7.7c0.9-0.1,1.7-0.5,2.4-1.2c-1.5-2.2-2.9-4.6-4.1-7.1
				C186.1,81,185.6,81.2,185.2,81.4z"/>
        <path fill="#DB9500" d="M187.5,80.7c-0.4,0-0.7,0.1-1,0.1c1.2,2.5,2.5,4.9,4.1,7.1c0.8-0.8,1.3-1.9,1.3-3.1
				C191.8,82.6,189.9,80.7,187.5,80.7z"/>
        <path fill="#C74B06" d="M187.5,80.7c-0.4,0-0.7,0.1-1,0.1c1.2,2.5,2.5,4.9,4.1,7.1c0.8-0.8,1.3-1.9,1.3-3.1
				C191.8,82.6,189.9,80.7,187.5,80.7z"/>
      </g>
      <path fill="#F5D073" d="M164.8,87.2c-0.4,1.5-2,2.4-3.5,1.9c-1.5-0.4-2.4-2-1.9-3.5c0.4-1.5,2-2.4,3.5-1.9
			C164.4,84.1,165.3,85.7,164.8,87.2z"/>
      <path fill="#DE7330" d="M331.9,61.3c-1.3,4.5-6,7.1-10.6,5.8c-4.5-1.3-7.1-6-5.8-10.6c1.3-4.5,6-7.1,10.6-5.8
			C330.7,52.1,333.2,56.8,331.9,61.3z"/>
      <path fill="#F5D073" d="M83.3,87.2c-0.4,1.5-2,2.4-3.5,1.9s-2.4-2-1.9-3.5s2-2.4,3.5-1.9C82.9,84.1,83.8,85.7,83.3,87.2z"/>

      <ellipse transform="matrix(0.3537 -0.9354 0.9354 0.3537 -61.2626 195.5348)" fill="#F5D073" cx="110.9" cy="142.1" rx="8.5" ry="8.5"/>
      <g>
        <path fill="#F5D073" d="M36.9,160.8c-0.2,0.7-0.7,1.3-1.4,1.7c-1.3,0.7-2.8,0.3-3.6-0.8c-1,0.7-1.7,1.7-2.1,2.9
				c-0.9,3,0.8,6.2,3.8,7c3,0.9,6.2-0.8,7-3.8C41.7,164.8,39.9,161.7,36.9,160.8z"/>
        <path fill="#DE7330" d="M36.9,160.8C36.9,160.8,36.9,160.8,36.9,160.8c0.2-0.7,0.1-1.5-0.2-2.2c-0.8-1.4-2.5-1.9-3.8-1.1
				c-1.4,0.8-1.9,2.5-1.1,3.8c0.1,0.1,0.1,0.2,0.2,0.3C33.3,160.7,35.2,160.3,36.9,160.8z"/>
        <path fill="#F5D073" d="M35.6,162.5c0.7-0.4,1.2-1,1.4-1.7c0,0,0,0,0,0c-1.8-0.5-3.6-0.1-5,0.9C32.8,162.8,34.3,163.2,35.6,162.5
				z"/>
        <path fill="#D3610F" d="M35.6,162.5c0.7-0.4,1.2-1,1.4-1.7c0,0,0,0,0,0c-1.8-0.5-3.6-0.1-5,0.9C32.8,162.8,34.3,163.2,35.6,162.5
				z"/>
      </g>
      <path fill="#F5D073" d="M164.7,169.5c-0.9,3-4,4.7-7,3.8c-3-0.9-4.7-4-3.8-7c0.9-3,4-4.7,7-3.8
			C163.9,163.4,165.6,166.5,164.7,169.5z"/>
      <path fill="#F5D073" d="M106.1,114.8c0,3.1-2.5,5.7-5.6,5.7c-3.1,0-5.7-2.5-5.7-5.6c0-3.1,2.5-5.7,5.6-5.7
			C103.5,109.2,106.1,111.7,106.1,114.8z"/>
      <path fill="#DE7330" d="M67.9,172.8c-0.4,1.5-2,2.4-3.5,1.9c-1.5-0.4-2.4-2-1.9-3.5c0.4-1.5,2-2.4,3.5-1.9S68.3,171.3,67.9,172.8z
			"/>
      <path fill="#F5D073" d="M38.1,127.2c-0.4,1.5-2,2.4-3.5,1.9c-1.5-0.4-2.4-2-1.9-3.5c0.4-1.5,2-2.4,3.5-1.9
			C37.6,124.1,38.5,125.7,38.1,127.2z"/>
      <path fill="#F5D073" d="M21.8,181c-1.3,4.5-6,7.1-10.6,5.8c-4.5-1.3-7.1-6-5.8-10.6c1.3-4.5,6-7.1,10.6-5.8
			C20.6,171.8,23.1,176.5,21.8,181z"/>
      <g>
        <path
          fill="#F5D073"
          d="M68.4,126.1c0.2-0.5,0.5-1,0.8-1.4c-0.8-0.6-1.7-1.1-2.7-1.5c-5.9-2.2-12.4,0.7-14.6,6.6
				c-2.2,5.9,0.7,12.4,6.6,14.6c5.9,2.2,12.4-0.7,14.6-6.6c0.5-1.3,0.7-2.7,0.7-4.1c-0.7,0-1.4-0.1-2.1-0.4
				C68.7,132.3,67.3,129,68.4,126.1z"/>
        <path fill="#F5D073" d="M75.7,122.8c-2.4-0.9-5.1-0.1-6.5,1.9c2.9,2.1,4.6,5.5,4.6,9.1c2.2,0,4.3-1.4,5.2-3.7
				C80.1,127.2,78.6,123.9,75.7,122.8z"/>
        <path fill="#F5D073" d="M69.1,124.7c-0.3,0.4-0.6,0.9-0.8,1.4c-1.1,2.9,0.4,6.2,3.3,7.3c0.7,0.3,1.4,0.4,2.1,0.4
				C73.8,130.2,72,126.8,69.1,124.7z"/>
        <path fill="#E9B129" d="M69.1,124.7c-0.3,0.4-0.6,0.9-0.8,1.4c-1.1,2.9,0.4,6.2,3.3,7.3c0.7,0.3,1.4,0.4,2.1,0.4
				C73.8,130.2,72,126.8,69.1,124.7z"/>
      </g>
      <g>
        <path fill="#DE7330" d="M-37.7,188.2c-2-2.4-5.6-2.7-8-0.7c0.5,0.6,0.7,1.3,0.6,2.1c-0.1,1.4-1.3,2.5-2.7,2.6
				c0.1,1.2,0.5,2.4,1.3,3.3c2,2.4,5.6,2.7,8,0.7C-36,194.2-35.6,190.6-37.7,188.2z"/>
        <path fill="#DE7330" d="M-45.6,187.5L-45.6,187.5c-0.5-0.6-1.1-0.9-1.9-1c-1.6-0.1-2.9,1-3.1,2.6c-0.1,1.6,1,2.9,2.6,3.1
				c0.1,0,0.3,0,0.4,0C-47.7,190.4-47.1,188.7-45.6,187.5z"/>
        <path fill="#DE7330" d="M-45,189.6c0.1-0.8-0.2-1.5-0.6-2.1l0,0c-1.4,1.2-2.1,2.9-2,4.6C-46.3,192-45.1,191-45,189.6z"/>
        <path fill="#C73709" d="M-45,189.6c0.1-0.8-0.2-1.5-0.6-2.1l0,0c-1.4,1.2-2.1,2.9-2,4.6C-46.3,192-45.1,191-45,189.6z"/>
      </g>
      <path fill="#DE7330" d="M105.9,182.1c-0.9,3-4,4.7-7,3.8c-3-0.9-4.7-4-3.8-7c0.9-3,4-4.7,7-3.8C105,176,106.8,179.1,105.9,182.1z"/>
      <path fill="#DE7330" d="M27.1,142.8c-0.9,3-4,4.7-7,3.8c-3-0.9-4.7-4-3.8-7c0.9-3,4-4.7,7-3.8C26.3,136.7,28,139.8,27.1,142.8z"/>
      <path fill="#DE7330" d="M-10.9,199.2c-0.4,1.5-2,2.4-3.5,1.9c-1.5-0.4-2.4-2-1.9-3.5c0.4-1.5,2-2.4,3.5-1.9
			S-10.4,197.7-10.9,199.2z"/>
      <g>
        <path fill="#F5D073" d="M354.2,49.3c-0.2,0.7-0.7,1.3-1.4,1.7c-1.3,0.7-2.8,0.3-3.6-0.8c-1,0.7-1.7,1.7-2.1,2.9
				c-0.9,3,0.8,6.2,3.8,7c3,0.9,6.2-0.8,7-3.8C358.9,53.4,357.2,50.2,354.2,49.3z"/>
        <path fill="#F5D073" d="M352.9,51c0.7-0.4,1.2-1,1.4-1.7h0c-1.8-0.5-3.6-0.1-5,0.9C350.1,51.3,351.6,51.7,352.9,51z"/>
        <path fill="#D3610F" d="M352.9,51c0.7-0.4,1.2-1,1.4-1.7h0c-1.8-0.5-3.6-0.1-5,0.9C350.1,51.3,351.6,51.7,352.9,51z"/>
      </g>
      <path fill="#F5D073" d="M369,14c-0.4,1.5-2,2.4-3.5,1.9c-1.5-0.4-2.4-2-1.9-3.5c0.4-1.5,2-2.4,3.5-1.9
			C368.6,10.9,369.5,12.5,369,14z"/>
      <path fill="#DE7330" d="M358.1,29.7c-0.9,3-4,4.7-7,3.8c-3-0.9-4.7-4-3.8-7c0.9-3,4-4.7,7-3.8C357.2,23.5,358.9,26.6,358.1,29.7z"/>
      <path fill="#DE7330" d="M340.6,73.9c-0.4,1.5-2,2.4-3.5,1.9c-1.5-0.4-2.4-2-1.9-3.5s2-2.4,3.5-1.9S341.1,72.4,340.6,73.9z"/>
    </g>
  </g>
</svg>
